<svg width="24px" height="24px" viewBox="0 0 24 24" version="1.1" xmlns="http://www.w3.org/2000/svg" xmlns:xlink="http://www.w3.org/1999/xlink">
    <!-- Generator: Sketch 50.2 (55047) - http://www.bohemiancoding.com/sketch -->
    <desc>Created with Sketch.</desc>
    <defs></defs>
    <g id="Page-1" stroke="none" stroke-width="1" fill="none" fill-rule="evenodd">
        <path d="M12.0524017,10.8775383 L16.3691497,6.56079038 L17.5178122,7.70945293 L13.2010643,12.0262009 L17.4916114,16.3167479 L16.3429488,17.4654105 L12.0524017,13.1748634 L7.7356538,17.4916114 L6.58699125,16.3429488 L10.9037392,12.0262009 L6.56079038,7.68325205 L7.70945293,6.53458951 L12.0524017,10.8775383 Z M12,24 C5.372583,24 0,18.627417 0,12 C0,5.372583 5.372583,0 12,0 C18.627417,0 24,5.372583 24,12 C24,18.627417 18.627417,24 12,24 Z M12.0524017,22.8471616 C18.014183,22.8471616 22.8471616,18.014183 22.8471616,12.0524017 C22.8471616,6.09062052 18.014183,1.25764192 12.0524017,1.25764192 C6.09062052,1.25764192 1.25764192,6.09062052 1.25764192,12.0524017 C1.25764192,18.014183 6.09062052,22.8471616 12.0524017,22.8471616 Z" id="Combined-Shape" fill="#525B76"></path>
    </g>
</svg>